<svg id="svg8" height="512" viewBox="0 0 6.3499999 6.3500002" width="512" xmlns="http://www.w3.org/2000/svg" xmlns:svg="http://www.w3.org/2000/svg"><g id="layer1" transform="translate(0 -290.65)"><path id="path823" d="m2 5a1.0002331 1.0002331 0 0 0 0 2h19.998047a1.0002331 1.0002331 0 1 0 0-2zm-.1035156 6a1.0015669 1.0015669 0 0 0 .1035156 2.001953h19.998047a1.0002331 1.0002331 0 0 0 0-2.001953h-19.998047a1.0001001 1.0001001 0 0 0 -.1035156 0zm0 6.001953a1.0015669 1.0015669 0 0 0 .1035156 2h19.998047a1.0002331 1.0002331 0 0 0 0-2h-19.998047a1.0001001 1.0001001 0 0 0 -.1035156 0z" transform="matrix(.265 0 0 .265 0 290.65)" font-variant-ligatures="normal" font-variant-position="normal" font-variant-caps="normal" font-variant-numeric="normal" font-variant-alternates="normal" font-feature-settings="normal" text-indent="0" text-align="start" text-decoration-line="none" text-decoration-style="solid" text-decoration-color="rgb(0,0,0)" text-transform="none" text-orientation="mixed" white-space="normal" shape-padding="0" isolation="auto" mix-blend-mode="normal" solid-color="rgb(0,0,0)" solid-opacity="1" vector-effect="none"/></g></svg>